<svg width="150" height="40" viewBox="0 0 924 113" fill="none" xmlns="http://www.w3.org/2000/svg">
<path d="M83.6 69.2H21.8V53.9H101.5C99.4 47.4 92.7 41.4 80.8 41.4H23C9.8 41.4 2.09999 46.3 2.09999 57V68.4C2.09999 77.7 9.99999 83 21.6 83H84.1V99.3H0C2.1 108.1 8.79999 112.8 20.9 112.8H83.8C97 112.8 103.5 107.7 103.5 96.8V85.4C103.5 75.2 95.9 69.8 83.6 69.2ZM209.7 41.5H133.5V112.8H155.1V85.4H211.3C226.9 85.4 235.5 80.1 235.5 67.5V59.6C235.2 48 225.5 41.5 209.7 41.5ZM216.6 64.3C216.6 69.4 215.7 72.2 207.3 72.2H155.1L155.3 53.6H206.4C215.7 53.6 216.8 56.4 216.8 61.3V64.3H216.6ZM307.2 84.9H261.2L249.8 97H316.2L327.6 112.8H353.1L298.1 38.5L285.1 54.5L307.2 84.9ZM394.5 53.8H475.3C473.2 45.4 465.1 41.3 453.5 41.3H393.1C382.7 41.3 372.7 45.5 372.7 56.9V96.8C372.7 108.2 382.7 112.4 393.1 112.4H454.2C468.1 112.4 473 108.5 475.3 98.9H394.5V53.8ZM570.1 77.5V65.4H504.8V112.8H601.2V99.3H526.7V77.5H570.1ZM507.1 41.5H604.4V54H507.1V41.5ZM664.4 41.5H630.5L670.4 70.8C676.2 66.9 682.9 62.7 689 59.2L664.4 41.5ZM713.6 78C707.8 81.9 702 86.4 696.4 90.5L726.6 112.6H760.7L713.6 78Z" fill="white"/>
<path d="M923.1 0C737.3 10.7 651.4 90.1 632.1 108.9L628.2 112.6H662.6C755.4 19.5 888.9 3 923.1 0Z" fill="#0260da"/>
</svg>
